<svg xmlns="http://www.w3.org/2000/svg" xmlns:xlink="http://www.w3.org/1999/xlink" version="1.1" x="0px" y="0px" viewBox="0 0 100 125" enable-background="new 0 0 100 100" xml:space="preserve"><path fill="#000000" d="M87.5,46.25H77.085L69.38,23.149c-1.37-4.122-5.226-6.899-9.569-6.899h-9.393h-9.397  c-4.34,0-8.2,2.778-9.569,6.899L23.75,46.25H12.5c-4.142,0-7.5,3.358-7.5,7.5c0,4.142,3.358,7.5,7.5,7.5h75  c4.142,0,7.5-3.358,7.5-7.5C95,49.608,91.642,46.25,87.5,46.25z"/><path fill="#000000" d="M80,68.75h-3.768C73.831,66.349,70.58,65,67.186,65H57.5c-2.073,0-3.75,1.679-3.75,3.75h-7.5  c0-2.071-1.677-3.75-3.75-3.75h-9.697c-3.395,0-6.651,1.35-9.053,3.75H20c-1.037,0-1.875,0.839-1.875,1.875S18.963,72.5,20,72.5  h5.572l2.565,5.277c0.264,0.674,0.601,1.315,1.011,1.91c1.692,2.455,4.522,4.063,7.727,4.063c2.472,0,4.724-0.956,6.401-2.525  c1.831-1.708,2.974-4.144,2.974-6.85c0-0.929,0-1.508,0-1.875h7.5c0,0.367,0,0.946,0,1.875c0,2.706,1.143,5.142,2.974,6.85  c1.677,1.569,3.929,2.525,6.401,2.525c3.211,0,6.046-1.615,7.738-4.08c0.406-0.589,0.74-1.223,1-1.89l2.57-5.281H80  c1.036,0,1.875-0.839,1.875-1.875S81.036,68.75,80,68.75z"/><text x="0" y="115" fill="#000000" font-size="5px" font-weight="bold" font-family="'Helvetica Neue', Helvetica, Arial-Unicode, Arial, Sans-serif">Created by Uriel Sosa</text><text x="0" y="120" fill="#000000" font-size="5px" font-weight="bold" font-family="'Helvetica Neue', Helvetica, Arial-Unicode, Arial, Sans-serif">from the Noun Project</text></svg>